<svg xmlns="http://www.w3.org/2000/svg" xmlns:xlink="http://www.w3.org/1999/xlink" width="1000" height="1000" viewBox="0 0 1000 1000" zoomAndPan="disable"><style type="text/css">.p-4{fill:rgba(255,255,255,.16)}.p-3{fill:rgba(255,255,255,.12)}.p-2{fill:rgba(255,255,255,.08)}.p-1{fill:rgba(255,255,255,.04)}.p0{fill:none}.p1{fill:rgba(0,0,0,.025)}.p2{fill:rgba(0,0,0,.05)}.p3{fill:rgba(0,0,0,.075)}.p4{fill:rgba(0,0,0,.1)}</style><polygon points="-1125 0 -375 1000 125 1000 -875 0" class="p-4"/><polygon points="-875 0 125 1000 375 1000 -625 0" class="p-3"/><polygon points="-625 0 375 1000 625 1000 -375 0" class="p-2"/><polygon points="-375 0 625 1000 875 1000 -125 0" class="p-1"/><polygon points="-125 0 875 1000 1125 1000 125 0" class="p0"/><polygon points="125 0 1125 1000 1375 1000 375 0" class="p1"/><polygon points="375 0 1375 1000 1625 1000 625 0" class="p2"/><polygon points="625 0 1625 1000 1875 1000 875 0" class="p3"/><polygon points="875 0 1875 1000 2125 1000 1125 0" class="p4"/></svg>